<svg id="Layer_1" data-name="Layer 1" xmlns="http://www.w3.org/2000/svg" viewBox="0 0 98 24"><defs><style>.cls-1{fill:#fff;}.cls-2{fill:none;}</style></defs><title>iphone_xs_nav_logo_large</title><g id="iPhone_X_S" data-name="iPhone X S"><path class="cls-1" d="M1.27,5.45A1.26,1.26,0,0,1,2.55,4.19,1.26,1.26,0,1,1,1.27,5.45Zm.17,2.83h2.2V19H1.45Zm10.25-4a4.62,4.62,0,0,1,4.85,4.83A4.67,4.67,0,0,1,11.63,14H8.47v5H6.19V4.29ZM8.47,12.06h2.62c2,0,3.12-1.07,3.12-2.92S13.07,6.22,11.1,6.22H8.47Zm9.64-7.77h2.18V10.1h.05a3.47,3.47,0,0,1,3.4-2c2.36,0,3.76,1.57,3.76,4V19H25.29V12.58C25.29,11,24.5,10,23,10a2.55,2.55,0,0,0-2.63,2.83V19h-2.2V4.29Zm11,9.34c0-3.37,2-5.5,5.09-5.5s5.09,2.12,5.09,5.5-2,5.5-5.09,5.5S29.07,17,29.07,13.63Zm7.93,0C37,11.32,35.95,10,34.16,10s-2.84,1.38-2.84,3.68,1.06,3.68,2.84,3.68S37,16,37,13.63Zm3.82-5.36h2.1V10.1H43a3.43,3.43,0,0,1,3.37-2c2.37,0,3.72,1.52,3.72,4V19H47.86V12.56c0-1.61-.75-2.51-2.3-2.51A2.49,2.49,0,0,0,43,12.83V19h-2.2Zm20.5,7.58c-.29,2-2.19,3.29-4.62,3.29-3.12,0-5.05-2.09-5.05-5.44s2-5.55,5-5.55,4.83,2,4.83,5.29v.75H53.87v.13a2.79,2.79,0,0,0,2.89,3,2.43,2.43,0,0,0,2.48-1.51Zm-7.45-3.21h5.37a2.58,2.58,0,0,0-2.63-2.72A2.72,2.72,0,0,0,53.88,12.65Zm16.34-1v-.07L65.39,4.3h2.72L71.75,10h.08L75.49,4.3h2.58l-5,7.34v.06L78,19H75.31l-3.66-5.61h-.07L67.87,19H65.34ZM96.78,7.74A3.63,3.63,0,0,0,93.1,4.06l-.82,0H86.21l-.82,0A3.62,3.62,0,0,0,81.7,7.74l0,.83v6.05l0,.83a3.61,3.61,0,0,0,3.68,3.68l.82,0h6.07l.82,0a3.62,3.62,0,0,0,3.68-3.68l0-.83V8.57ZM95.44,15.4A2.29,2.29,0,0,1,93,17.8l-.78,0H86.22l-.78,0A2.29,2.29,0,0,1,83,15.4l0-.77V8.56l0-.77A2.29,2.29,0,0,1,85.44,5.4l.78,0h6.05l.78,0a2.29,2.29,0,0,1,2.39,2.39l0,.77v6.07Z"/><path class="cls-1" d="M87.52,13.31c.1.72.8,1.14,1.77,1.14s1.59-.46,1.59-1.11-.39-.9-1.4-1.11l-.83-.17c-1.55-.32-2.28-1-2.28-2.18,0-1.37,1.2-2.29,2.89-2.29s2.85.94,2.89,2.32H90.82c-.06-.73-.68-1.17-1.57-1.17s-1.47.41-1.47,1.06.39.87,1.35,1.07L90,11c1.64.34,2.31,1,2.31,2.15,0,1.48-1.17,2.42-3,2.42s-3-.88-3.05-2.3h1.33Z"/><path id="BOUNDS" class="cls-2" d="M0,0H98V24H0Z"/></g></svg>